<svg id="Capa_1" enable-background="new 0 0 512 512" height="512" viewBox="0 0 512 512" width="512" xmlns="http://www.w3.org/2000/svg"><g><path d="m256 128.347c-5.34 0-10.68-2.038-14.755-6.112l-61.688-61.688c-8.15-8.149-8.15-21.361 0-29.51 8.149-8.149 21.361-8.149 29.51 0l46.933 46.931 46.933-46.932c8.149-8.149 21.361-8.149 29.51 0 8.15 8.149 8.15 21.361 0 29.51l-61.688 61.688c-4.074 4.075-9.415 6.113-14.755 6.113z" fill="#8eafe2"/><path d="m256 216.006c-11.525 0-20.867-9.343-20.867-20.867v-174.272c0-11.524 9.342-20.867 20.867-20.867s20.867 9.343 20.867 20.867v174.271c0 11.526-9.342 20.868-20.867 20.868z" fill="#a2ddfd"/><path d="m178.971 149.461-53.863-53.863v-31.551c0-11.525-9.343-20.868-20.868-20.868s-20.867 9.343-20.867 20.868v19.326h-19.326c-11.525 0-20.867 9.343-20.867 20.868s9.343 20.868 20.867 20.868h31.551l53.863 53.863c8.15 8.15 21.361 8.149 29.51 0 8.151-8.15 8.151-21.362 0-29.511z" fill="#a2ddfd"/><path d="m45.792 338.555c-5.34 0-10.681-2.038-14.755-6.112-8.15-8.149-8.15-21.361 0-29.51l46.931-46.933-46.932-46.933c-8.15-8.149-8.15-21.361 0-29.51 8.149-8.149 21.361-8.149 29.51 0l61.688 61.688c8.15 8.149 8.15 21.361 0 29.51l-61.688 61.688c-4.074 4.074-9.414 6.112-14.754 6.112z" fill="#8eafe2"/><path d="m195.139 276.867h-174.272c-11.524 0-20.867-9.342-20.867-20.867s9.343-20.867 20.867-20.867h174.271c11.525 0 20.867 9.343 20.867 20.867.001 11.525-9.341 20.867-20.866 20.867z" fill="#a2ddfd"/><path d="m178.971 333.029c-8.149-8.149-21.361-8.149-29.51 0l-53.863 53.863h-31.551c-11.525 0-20.867 9.343-20.867 20.867 0 11.525 9.343 20.867 20.867 20.867h19.327v19.327c0 11.525 9.342 20.867 20.867 20.867s20.868-9.343 20.868-20.867v-31.551l53.863-53.863c8.15-8.149 8.15-21.361-.001-29.51z" fill="#a2ddfd"/><path d="m317.688 487.076c-5.34 0-10.681-2.038-14.755-6.112l-46.933-46.932-46.933 46.932c-8.149 8.149-21.361 8.149-29.51 0-8.15-8.149-8.15-21.361 0-29.51l61.688-61.688c8.149-8.149 21.361-8.149 29.51 0l61.688 61.688c8.15 8.149 8.15 21.361 0 29.51-4.075 4.074-9.415 6.112-14.755 6.112z" fill="#8eafe2"/><path d="m256 512c-11.525 0-20.867-9.343-20.867-20.867v-174.272c0-11.525 9.343-20.867 20.867-20.867 11.525 0 20.867 9.343 20.867 20.867v174.271c0 11.525-9.342 20.868-20.867 20.868z" fill="#a2ddfd"/><path d="m447.953 386.891h-31.551l-53.863-53.863c-8.149-8.149-21.361-8.149-29.51 0-8.15 8.149-8.15 21.361 0 29.51l53.863 53.863v31.551c0 11.525 9.343 20.867 20.867 20.867 11.525 0 20.867-9.343 20.867-20.867v-19.327h19.327c11.525 0 20.867-9.342 20.867-20.867 0-11.524-9.342-20.867-20.867-20.867z" fill="#a2ddfd"/><path d="m466.208 338.555c-5.34 0-10.681-2.038-14.755-6.112l-61.688-61.688c-8.15-8.149-8.15-21.361 0-29.51l61.688-61.688c8.149-8.149 21.361-8.149 29.51 0 8.15 8.149 8.15 21.361 0 29.51l-46.931 46.933 46.932 46.933c8.15 8.149 8.15 21.361 0 29.51-4.075 4.074-9.416 6.112-14.756 6.112z" fill="#8eafe2"/><path d="m491.133 276.867h-174.272c-11.525 0-20.867-9.343-20.867-20.867 0-11.525 9.343-20.867 20.867-20.867h174.271c11.525 0 20.867 9.343 20.867 20.867.001 11.525-9.342 20.867-20.866 20.867z" fill="#a2ddfd"/><path d="m447.953 83.374h-19.327v-19.327c0-11.525-9.342-20.868-20.867-20.868s-20.867 9.343-20.867 20.868v31.551l-53.863 53.863c-8.15 8.149-8.15 21.361 0 29.51 8.15 8.15 21.361 8.149 29.51 0l53.863-53.863h31.551c11.525 0 20.867-9.343 20.867-20.868 0-11.524-9.342-20.866-20.867-20.866z" fill="#a2ddfd"/><g fill="#7acdf9"><path d="m147.653 118.143c-6.346 2.976-12.204 7.069-17.322 12.188-5.155 5.155-9.234 11.023-12.194 17.316l31.324 31.324c8.15 8.15 21.361 8.149 29.51 0 8.15-8.149 8.15-21.361 0-29.51z"/><path d="m256 216.006c11.525 0 20.867-9.342 20.867-20.867v-60.985l-20.867 9.281-20.867-9.281v60.985c0 11.524 9.342 20.867 20.867 20.867z"/><path d="m118.115 364.318c2.976 6.346 7.069 12.204 12.188 17.323 5.155 5.155 11.023 9.234 17.316 12.194l31.324-31.324c8.15-8.15 8.149-21.361 0-29.51-8.149-8.15-21.361-8.15-29.51 0z"/><path d="m215.978 255.972c0-11.525-9.343-20.867-20.867-20.867h-60.985l9.281 20.867-9.281 20.867h60.985c11.524 0 20.867-9.343 20.867-20.867z"/><path d="m364.29 393.857c6.346-2.976 12.204-7.069 17.322-12.188 5.156-5.155 9.234-11.023 12.194-17.316l-31.324-31.324c-8.15-8.15-21.361-8.149-29.51 0-8.15 8.149-8.15 21.361 0 29.51z"/><path d="m255.943 295.994c-11.525 0-20.867 9.342-20.867 20.867v60.985l20.867-9.281 20.867 9.281v-60.985c.001-11.525-9.342-20.867-20.867-20.867z"/><path d="m393.828 147.682c-2.976-6.346-7.069-12.204-12.188-17.322-5.155-5.155-11.023-9.234-17.316-12.194l-31.324 31.324c-8.15 8.15-8.149 21.361 0 29.51 8.149 8.15 21.361 8.15 29.51 0z"/><path d="m295.966 256.028c0 11.525 9.343 20.867 20.867 20.867h60.985l-9.281-20.867 9.281-20.867h-60.985c-11.525 0-20.867 9.342-20.867 20.867z"/></g><path d="m326.346 366.027-70.346-31.285-70.345 31.286c-25.141 11.178-50.857-14.553-39.683-39.682l31.286-70.346-31.286-70.345c-5.097-11.463-2.659-24.601 6.211-33.472 8.872-8.871 22.01-11.308 33.47-6.211l70.347 31.286 70.345-31.286h.001c11.46-5.098 24.598-2.66 33.47 6.211 8.87 8.871 11.308 22.008 6.211 33.47l-31.285 70.347 31.286 70.345c5.097 11.463 2.659 24.601-6.211 33.472-8.77 8.769-21.882 11.364-33.471 6.21zm-58.132-71.53 47.336 21.052-21.052-47.335c-3.452-7.763-3.452-16.667 0-24.43l21.052-47.336-47.335 21.053c-7.762 3.451-16.667 3.451-24.43 0l-47.335-21.051 21.053 47.335c3.451 7.764 3.451 16.667 0 24.43l-21.053 47.335 47.335-21.052c7.762-3.452 16.667-3.452 24.429-.001z" fill="#cde9fa"/></g></svg>